<?xml version="1.0" encoding="UTF-8" standalone="no"?>
<!-- Created with Inkscape (http://www.inkscape.org/) -->

<svg
   xmlns:dc="http://purl.org/dc/elements/1.1/"
   xmlns:cc="http://creativecommons.org/ns#"
   xmlns:rdf="http://www.w3.org/1999/02/22-rdf-syntax-ns#"
   xmlns:svg="http://www.w3.org/2000/svg"
   xmlns="http://www.w3.org/2000/svg"
   xmlns:sodipodi="http://sodipodi.sourceforge.net/DTD/sodipodi-0.dtd"
   xmlns:inkscape="http://www.inkscape.org/namespaces/inkscape"
   width="210mm"
   height="297mm"
   viewBox="0 0 210 297"
   version="1.1"
   id="svg10365"
   inkscape:version="0.92.5 (2060ec1f9f, 2020-04-08)"
   sodipodi:docname="logo.svg">
  <defs
     id="defs10359" />
  <sodipodi:namedview
     id="base"
     pagecolor="#ffffff"
     bordercolor="#666666"
     borderopacity="1.0"
     inkscape:pageopacity="0.0"
     inkscape:pageshadow="2"
     inkscape:zoom="0.35"
     inkscape:cx="-1044.2857"
     inkscape:cy="560"
     inkscape:document-units="mm"
     inkscape:current-layer="layer1"
     showgrid="false"
     inkscape:window-width="1920"
     inkscape:window-height="1001"
     inkscape:window-x="-9"
     inkscape:window-y="-9"
     inkscape:window-maximized="1" />
  <metadata
     id="metadata10362">
    <rdf:RDF>
      <cc:Work
         rdf:about="">
        <dc:format>image/svg+xml</dc:format>
        <dc:type
           rdf:resource="http://purl.org/dc/dcmitype/StillImage" />
        <dc:title />
      </cc:Work>
    </rdf:RDF>
  </metadata>
  <g
     inkscape:label="Layer 1"
     inkscape:groupmode="layer"
     id="layer1">
    <g
       transform="translate(-12.278785,-180.4803)"
       id="g10355"
       style="fill:#000000;stroke:none"
       inkscape:export-xdpi="96"
       inkscape:export-ydpi="96">
      <flowRoot
         transform="matrix(0.84220807,0,0,1.2581099,-79.37085,-547.26814)"
         style="font-style:normal;font-variant:normal;font-weight:normal;font-stretch:normal;font-size:40px;line-height:0.69999999;font-family:Adam;-inkscape-font-specification:Adam;letter-spacing:-2.64583325px;word-spacing:0px;fill:#000000;fill-opacity:1;stroke:none;stroke-width:0.92678583;stroke-miterlimit:4;stroke-dasharray:none;stroke-opacity:1"
         id="flowRoot9978-9-9"
         xml:space="preserve"><flowRegion
           style="font-style:normal;font-variant:normal;font-weight:normal;font-stretch:normal;line-height:0.69999999;font-family:Adam;-inkscape-font-specification:Adam;letter-spacing:-2.64583325px;word-spacing:0px;fill:#000000;fill-opacity:1;stroke:none;stroke-width:0.92678583;stroke-miterlimit:4;stroke-dasharray:none;stroke-opacity:1"
           id="flowRegion9980-0-4"><rect
             style="font-style:normal;font-variant:normal;font-weight:normal;font-stretch:normal;line-height:0.69999999;font-family:Adam;-inkscape-font-specification:Adam;letter-spacing:-2.64583325px;word-spacing:0px;fill:#000000;fill-opacity:1;stroke:none;stroke-width:0.92678583;stroke-miterlimit:4;stroke-dasharray:none;stroke-opacity:1"
             y="620.70148"
             x="132.72728"
             height="143.63637"
             width="360"
             id="rect9982-7-4" /></flowRegion><flowPara
           id="flowPara10004-8-6"
           style="font-style:normal;font-variant:normal;font-weight:normal;font-stretch:normal;line-height:0.69999999;font-family:Adam;-inkscape-font-specification:Adam;word-spacing:0px;fill:#000000;fill-opacity:1;stroke:none;stroke-width:0.92678583;stroke-miterlimit:4;stroke-dasharray:none;stroke-opacity:1"><flowSpan
             style="font-size:49.3508606px;fill:#000000;fill-opacity:1;stroke:none;stroke-opacity:1"
             id="flowSpan10287"> </flowSpan><flowSpan
             id="flowSpan10148-4"
             style="fill:#000000;fill-opacity:1;stroke:none;stroke-opacity:1"><flowSpan
               style="font-size:49.3508606px;fill:#000000;fill-opacity:1;stroke:none;stroke-opacity:1"
               id="flowSpan10289">G</flowSpan><flowSpan
               style="font-size:30.50157356px;fill:#000000;fill-opacity:1;stroke:none;stroke-opacity:1"
               id="flowSpan10291">oodWind</flowSpan></flowSpan></flowPara></flowRoot>      <path
         sodipodi:nodetypes="scccscscscscccccscccccssccsccccccssccccssscsccssccccsscccccccccccscsccccscccscccsscscccccccsccsccscccscccscsccc"
         inkscape:connector-curvature="0"
         id="path10222"
         d="m 166.14368,263.01554 c -0.36931,0.40621 -2.89736,1.59878 -2.65065,1.01783 1.53941,-3.62509 5.66203,-10.46462 5.9651,-14.884 0.16821,-2.45281 0.0332,-2.81726 -0.3883,-1.04819 -1.23644,5.18935 -3.47842,10.7561 -6.51463,13.92681 -1.24493,1.30009 -4.88825,6.09474 -4.85423,5.64535 0.007,-0.0942 1.32766,-3.26315 1.68683,-3.71469 6.15587,-7.74033 9.34182,-21.17718 8.51805,-32.46853 -0.0655,-0.89651 -0.29434,-2.72286 -0.50874,-4.05859 -0.21439,-1.33571 -3.26832,-4.68172 -2.14519,-4.57136 -0.9859,-1.92593 0.97357,-3.13535 1.25438,-3.11766 0.10089,0.006 1.95882,2.02624 2.56899,2.61697 0.61019,0.59072 1.65966,1.50145 2.3322,2.02383 2.89224,2.24656 4.49074,3.95482 5.69668,6.08788 0.63322,1.12 0.83001,1.64262 1.33027,3.53259 0.62159,2.34843 0.7658,3.65029 0.63004,5.68762 -0.10082,1.51272 -0.31703,1.59784 -0.67019,0.26382 -0.51885,-1.95989 0.074,1.40283 -0.26694,1.29931 -0.0847,-0.0257 -1.66961,-3.39701 -1.65034,-3.33101 0.0196,0.0652 -0.53439,-3.3305 -0.19054,-2.3472 1.33583,3.82009 1.86137,9.0532 1.22012,12.14896 -0.25026,1.20808 -0.72925,2.26234 -0.83856,1.84576 -0.0304,-0.11591 -0.10415,-0.90987 -0.16382,-1.76438 -0.19709,-2.82209 -1.0684,-7.07471 -1.855,-9.05377 -0.44649,-1.12337 1.1e-4,-1.56781 0.40176,-0.0397 1.4947,5.68637 0.42275,13.39137 -1.90784,17.65632 -0.36193,0.66226 -0.71798,1.16965 -0.79127,1.12749 -0.0733,-0.0421 -0.008,-0.84861 0.14534,-1.79213 0.15323,-0.94351 0.32303,-2.36223 0.37731,-3.1527 0.1979,-2.88151 0.0109,-7.14717 -0.37326,-8.512 -0.16133,-0.57315 -0.18404,-0.4282 -0.16829,1.07308 0.0274,2.61256 -0.14555,4.56499 -0.61728,6.96757 -0.59075,3.00881 -1.52168,5.46928 -2.8094,7.69539 -1.21055,2.09266 -1.58834,1.94773 -1.91182,2.30353 z m 23.73199,-12.34458 c -2.10764,-5.17659 -4.3927,-6.73434 -6.93599,-8.21958 -0.85475,-0.49913 -2.60704,-1.00649 -3.25416,-1.12767 -0.5494,-0.10287 -1.1148,-1.90105 -0.13158,-0.0446 -0.0377,-0.015 -4.5334,-11.05728 -1.3372,-3.65796 0.74791,1.73145 -0.47728,-3.63077 -0.87657,-5.13918 -0.16942,-0.63999 -0.50124,-2.20093 -0.42535,-2.22102 0.31343,-0.083 4.73167,4.94056 6.19715,6.61872 3.26249,3.73596 6.58206,6.46268 7.63485,11.35921 0.72319,3.36349 3.69698,7.98467 2.78713,5.75001 z m -4.30682,1.81704 c 0.033,-1.39625 -0.0345,-1.93526 -0.4367,-3.48426 -0.58677,-2.26035 -1.26734,-3.53663 -2.82764,-5.30323 -0.68135,-0.77145 -2.70264,-3.1217 -1.14941,-2.97986 0.36672,-0.0971 2.35534,0.60973 3.25297,1.60462 1.48445,1.64525 2.10237,4.67803 2.19295,5.85833 0.0959,1.24946 -0.098,2.87442 -0.45258,3.79378 -0.28085,0.72824 -0.59122,1.00164 -0.57959,0.51062 z m -32.0398,-7.83459 c -0.0187,-0.0704 0.40288,-0.56443 0.93667,-1.09798 1.84504,-1.84414 5.31957,-6.59154 5.71053,-7.80252 l 0.13923,-0.43123 -0.89978,1.92715 c -3.5189,4.57797 -5.01519,5.1088 -8.15634,7.09659 -2.0246,1.28121 -5.61154,2.6465 -6.34556,2.41532 -0.3492,-0.11 -0.31051,-0.14615 1.0637,-0.9942 2.56357,-1.58203 5.84568,-4.42907 8.08791,-7.01578 0.58433,-0.67411 1.08159,-1.28882 1.10503,-1.36598 0.0234,-0.0772 -0.83745,0.64228 -1.91308,1.59879 -4.41841,3.92913 -9.55354,6.5076 -13.86488,6.9619 -1.6839,0.17745 -2.71135,0.149 -2.78655,-0.0772 -0.027,-0.0813 0.60837,-0.37388 1.43993,-0.66315 2.94045,-1.02286 6.90102,-3.19418 9.96034,-5.4606 1.41228,-1.04624 2.88829,-2.31154 2.77398,-2.37797 -0.0394,-0.0231 -0.1492,1.30483 -0.86783,1.70283 -4.14346,2.29472 -9.75433,2.73719 -13.77384,2.78452 -2.16565,0.0255 -4.92361,-0.40781 -5.58175,-0.87694 -0.31017,-0.22109 -0.24482,-0.23506 1.87599,-0.40098 2.24846,-0.17589 7.14879,-1.31337 9.70819,-2.25351 5.25225,-1.92928 10.57307,-5.01402 15.06672,-8.73495 0.63907,-0.52919 1.2985,-0.84946 1.37325,-0.93933 1.27823,-1.53682 3.14751,-4.21791 1.69854,-0.44833 0.25645,0.95742 -0.32126,4.45453 -0.0362,5.06784 0.28511,0.61332 0.52207,1.15584 0.52657,1.20561 0.004,0.0498 0.1948,0.32591 0.42288,0.61366 0.2281,0.28773 0.61884,0.7808 0.86834,1.09568 0.24949,0.3149 0.45906,0.59307 0.46571,0.61818 0.007,0.0251 -0.366,0.56755 -0.8281,1.20543 -1.94657,2.68711 -4.23727,4.81442 -6.49213,6.02907 -1.24147,0.66874 -1.62652,0.81062 -1.6775,0.61805 z m 12.26354,-5.98978 c -2.14235,-1.38389 -3.52267,-2.80745 -4.69134,-4.83823 -0.50246,-0.87313 -0.82749,-1.75782 -1.68876,-4.59655 -1.10179,-3.63142 -1.23203,-3.92961 -2.44704,-5.60253 -0.64742,-0.89142 -0.80783,-1.01968 -1.53554,-1.22805 -0.92741,-0.26556 -2.07965,-0.7823 -2.00801,-0.90056 -0.71006,-0.45287 -1.16784,0.0637 -0.1042,-0.71635 -0.1919,-0.0992 1.02375,-1.11088 1.75073,-1.45689 0.27574,-0.13121 0.63175,-0.47851 0.79713,-0.77756 0.68897,-1.24573 2.68774,-2.24173 4.52769,-2.25614 1.86527,-0.0146 3.69711,0.8826 5.46806,2.67819 1.47501,1.49553 1.52552,1.59896 1.17585,2.40787 -0.68982,1.59584 -0.74534,2.90684 -0.2464,5.81958 0.58759,3.43021 0.793,6.81301 0.62409,10.27724 -0.0543,1.11625 -0.157,1.71819 -0.30493,1.78948 -0.12895,0.0621 -0.68424,-0.19059 -1.31733,-0.59952 z m -4.51975,1.76875 c -0.0126,-0.0477 0.38152,-0.76532 0.87586,-1.59494 l 0.89878,-1.50841 0.44411,0.3049 c 0.24424,0.1677 0.46855,0.39727 0.49843,0.51015 0.0299,0.11286 -0.47106,0.66874 -1.1132,1.23528 -1.08828,0.96014 -1.54858,1.26232 -1.60398,1.05302 z"
         style="fill:#000000;stroke-width:0.15296693;stroke:none" />
    </g>
  </g>
</svg>
